<svg version="1.1" id="Layer_1" xmlns="http://www.w3.org/2000/svg" xmlns:xlink="http://www.w3.org/1999/xlink" x="0px" y="0px"
	 width="100%" viewBox="0 0 849 413" enable-background="new 0 0 849 413" xml:space="preserve">
<path fill="#000000" opacity="1.000000" stroke="none" 
	d="
M850.000000,211.000000 
	C850.000000,278.643433 850.000000,346.286835 850.000000,413.965149 
	C567.120422,413.965149 284.240875,413.965149 1.000000,413.965149 
	C1.000000,347.310455 1.000000,280.620239 1.468657,213.465012 
	C96.270798,213.000000 190.604279,213.000000 284.636414,213.000000 
	C284.636414,205.859924 284.636414,199.451065 284.636414,193.000000 
	C189.848557,193.000000 95.424278,193.000000 1.000000,193.000000 
	C1.000000,129.022400 1.000000,65.044807 1.000000,1.033606 
	C283.878510,1.033606 566.757019,1.033606 850.000000,1.033606 
	C850.000000,63.689522 850.000000,126.379745 849.616943,189.881912 
	C847.640991,190.462570 846.048218,190.029434 844.455261,190.028870 
	C752.132812,189.996521 659.810425,189.998947 567.487976,190.009674 
	C566.053284,190.009842 564.618591,190.155136 563.296509,190.226608 
	C563.296509,197.329956 563.296509,204.069839 563.296509,211.000000 
	C659.061951,211.000000 754.531006,211.000000 850.000000,211.000000 
M519.014832,97.525452 
	C514.550598,94.352303 510.402802,90.498535 505.518951,88.227982 
	C501.817139,86.506973 500.362579,84.367554 499.984772,80.748283 
	C499.732910,78.335281 499.551575,75.881836 498.959351,73.542511 
	C492.524841,48.124210 467.879852,28.756926 439.324860,31.865591 
	C422.071259,33.743916 408.647217,41.356701 398.402161,55.089958 
	C396.960968,57.021832 395.375244,57.705193 392.678101,57.067810 
	C388.007233,55.963982 383.149200,55.090683 378.371826,55.101254 
	C362.335022,55.136726 349.646332,68.843513 347.905243,83.573006 
	C347.760498,84.797455 346.527283,86.359535 345.384644,86.923431 
	C338.417572,90.361565 332.141754,94.415337 326.876282,100.422882 
	C313.161987,116.069931 312.496124,139.166351 323.227692,155.403809 
	C332.492310,169.421600 345.744873,177.028931 362.948425,177.012558 
	C403.921600,176.973572 444.895020,177.047699 485.867828,176.921494 
	C489.696686,176.909698 493.576477,176.031555 497.338989,175.154144 
	C508.782318,172.485550 517.779602,165.901566 524.071899,156.231918 
	C530.888550,145.756302 533.527710,134.181305 531.206177,121.511948 
	C529.543213,112.436470 525.110901,105.019974 519.014832,97.525452 
M652.956360,331.499695 
	C651.616943,328.495361 650.277588,325.490997 649.058594,322.756775 
	C659.499390,317.802917 668.995605,312.789886 671.148560,300.029388 
	C672.372314,292.775787 671.802795,285.992035 670.183655,278.867218 
	C667.849976,268.598328 660.641907,263.497589 651.738403,261.297119 
	C644.676147,259.551697 636.988403,260.079376 629.578003,260.074036 
	C622.334473,260.068817 615.087891,260.959442 607.847778,260.892914 
	C603.327881,260.851410 602.028137,263.123962 602.023315,266.846008 
	C601.982605,298.312714 602.021179,329.779572 601.963989,361.246246 
	C601.958862,364.054626 603.009949,365.130219 605.792664,365.034729 
	C609.783752,364.897797 613.783081,365.010712 617.778809,364.997101 
	C622.245972,364.981903 624.086121,362.812744 624.039551,358.499298 
	C623.912476,346.726837 623.995850,334.952148 623.995850,321.711121 
	C625.832153,323.451447 627.055908,324.125793 627.538452,325.149506 
	C630.131348,330.651062 632.388062,336.313080 635.040894,341.783997 
	C642.865051,357.919525 646.448059,366.964813 667.313232,365.140015 
	C671.193970,364.800659 673.190430,363.346619 674.469299,360.059235 
	C677.030762,353.474945 673.740112,347.739655 666.930359,347.003265 
	C662.893555,346.566772 660.026611,344.391907 658.013062,341.001617 
	C656.302490,338.121338 654.685913,335.185181 652.956360,331.499695 
M540.816162,366.000000 
	C546.647095,366.000000 552.504517,366.351288 558.302612,365.914612 
	C566.262817,365.315094 572.718872,361.943451 578.222900,355.674561 
	C585.384399,347.517944 586.620850,337.706421 586.767090,327.985046 
	C586.989807,313.181061 585.965027,298.332123 584.891296,283.544281 
	C584.215637,274.238861 573.309509,262.442413 563.964600,261.166870 
	C555.678772,260.035889 547.089844,259.376648 538.836487,260.304382 
	C532.116760,261.059723 525.980469,264.546143 521.583496,270.682709 
	C515.571167,279.073761 514.888184,288.724457 514.138611,298.281036 
	C513.476440,306.723816 513.751038,315.269318 514.083130,323.751038 
	C514.324524,329.918457 514.656372,336.224152 516.134277,342.173492 
	C519.834534,357.069275 524.881470,362.477753 540.816162,366.000000 
M394.430847,260.000000 
	C391.265686,260.000000 388.098511,260.072662 384.935699,259.986176 
	C375.903076,259.739288 368.523315,263.131073 363.203491,270.373840 
	C355.319519,281.107605 353.685669,293.024261 359.730286,304.827057 
	C362.057617,309.371552 367.054077,313.268860 371.743317,315.727600 
	C380.353699,320.242371 389.658264,323.424652 398.630829,327.261963 
	C401.807007,328.620361 404.705688,330.997711 403.813477,334.606323 
	C402.987976,337.945160 401.376434,342.069122 398.757263,343.806580 
	C389.909668,349.675751 379.388641,344.272675 378.058990,333.603180 
	C377.573456,329.707031 376.247833,327.571838 371.906647,327.940521 
	C368.441742,328.234772 364.925415,327.864197 361.443359,328.029358 
	C355.195129,328.325775 353.731720,330.476196 355.273621,336.650421 
	C355.585449,337.899109 355.722107,339.190643 356.006470,340.447266 
	C358.473694,351.350830 363.743958,359.817169 374.817017,364.112061 
	C383.060425,367.309387 391.448639,365.881836 399.733124,365.776764 
	C403.987030,365.722809 408.565216,363.993408 412.383392,361.901520 
	C424.152740,355.453247 427.732574,339.300751 425.713837,327.613556 
	C424.270660,319.258423 419.226837,313.078278 411.226654,309.706818 
	C407.249390,308.030701 403.159851,306.622162 399.172516,304.968567 
	C393.573914,302.646820 387.822784,300.573639 382.538727,297.664368 
	C379.991089,296.261688 377.156281,293.994934 378.602173,289.749115 
	C381.127167,282.334564 383.366699,280.768646 392.656464,281.000031 
	C398.775452,281.152435 402.619415,284.362640 403.955841,290.876404 
	C404.845825,295.214111 406.841553,297.551636 411.631683,297.060608 
	C414.763947,296.739532 417.957611,297.066040 421.120605,296.982727 
	C424.834686,296.884857 427.049225,295.707245 427.101440,291.178589 
	C427.285095,275.243591 414.499664,258.535370 394.430847,260.000000 
M304.622681,321.000000 
	C313.621277,321.000000 322.619904,321.000000 331.618500,321.000000 
	C339.620850,321.000000 339.587250,320.998169 340.035461,312.835632 
	C340.104797,311.572571 340.693237,310.345673 340.957275,309.084381 
	C342.320618,302.571716 341.065216,301.000671 334.540833,301.000214 
	C323.440277,300.999420 312.339722,301.000000 301.276001,301.000000 
	C301.276001,294.046204 301.276001,287.641144 301.276001,280.520447 
	C312.287354,281.021637 323.007751,281.364929 333.705719,282.056030 
	C339.260223,282.414825 340.947357,281.196716 341.009674,275.688019 
	C341.041595,272.866272 340.845337,269.986969 341.335846,267.237823 
	C342.141449,262.722290 338.999207,259.181427 334.610657,260.042755 
	C332.562500,260.444763 330.484131,260.947449 328.417114,260.958160 
	C313.419830,261.036072 298.421478,261.062286 283.424652,260.949066 
	C280.314880,260.925598 278.968781,261.706299 278.928162,265.125702 
	C278.772705,278.211670 278.160034,291.292725 278.041809,304.378510 
	C277.876221,322.707520 278.147797,341.041168 277.893860,359.368164 
	C277.832031,363.832336 279.461151,365.091156 283.538239,365.043213 
	C294.368408,364.915833 305.201050,364.997284 316.032715,365.001251 
	C321.031830,365.003082 326.120575,364.421021 331.010651,365.155640 
	C340.125763,366.524963 341.992676,365.258911 341.999786,355.939056 
	C342.001160,354.106018 342.091949,352.267365 341.981567,350.440979 
	C341.689697,345.612061 339.191376,344.525116 334.340515,344.718903 
	C322.947052,345.173981 311.523041,344.864624 300.000092,344.864624 
	C300.000092,337.672791 300.172241,331.009460 299.923523,324.361908 
	C299.808533,321.289062 301.043091,320.607025 304.622681,321.000000 
M750.000000,266.746613 
	C749.946594,261.771912 747.495056,259.254333 743.558044,260.036987 
	C741.511597,260.443787 739.433350,260.947174 737.367188,260.957947 
	C722.381409,261.036224 707.394714,261.051727 692.409058,260.963470 
	C688.691162,260.941559 686.962463,262.333862 686.969177,266.186218 
	C687.023987,297.657166 687.050476,329.128418 686.931702,360.599030 
	C686.917969,364.247162 688.298462,365.118683 691.644958,365.058350 
	C700.966736,364.890320 710.295776,364.872467 719.617493,365.040009 
	C727.195923,365.176208 734.772522,365.588348 742.341553,366.023438 
	C748.520081,366.378571 749.957214,365.156219 749.996216,358.960388 
	C750.017212,355.630280 750.055542,352.298676 749.984375,348.969940 
	C749.912964,345.631989 747.084900,343.893097 743.780090,343.955780 
	C732.291687,344.173767 720.796631,344.040039 709.245239,344.040039 
	C709.245239,336.767151 709.245239,329.033630 709.245239,321.000000 
	C720.777832,321.000000 732.071594,320.829193 743.355530,321.088104 
	C747.584900,321.185150 749.597595,320.196869 749.064209,315.592285 
	C748.721619,312.634766 748.756165,309.580444 749.057922,306.613922 
	C749.494324,302.323517 748.106750,300.769745 743.562439,300.895477 
	C732.141602,301.211517 720.706116,301.000000 709.252686,301.000000 
	C709.252686,294.085785 709.252686,287.684113 709.252686,280.524994 
	C720.228699,281.023834 730.942261,281.303375 741.620544,282.072632 
	C748.184998,282.545532 749.968567,281.304626 749.998352,274.678284 
	C750.008789,272.347137 750.000000,270.015900 750.000000,266.746613 
M162.672409,263.139893 
	C160.703293,262.106873 158.819717,260.505951 156.742111,260.192993 
	C154.445007,259.846954 151.971802,260.942383 149.572556,260.956970 
	C135.254990,261.043945 120.936630,260.995178 106.618538,261.002289 
	C100.489998,261.005341 100.004623,261.473358 100.003128,267.472443 
	C99.996109,295.775635 100.022148,324.078918 99.960114,352.381958 
	C99.954865,354.779022 99.138474,357.175415 99.143684,359.571106 
	C99.150017,362.487000 99.823517,365.125397 103.755165,365.032318 
	C107.070778,364.953796 110.512489,364.639557 113.682556,365.368408 
	C117.744041,366.302216 120.131050,364.778992 120.873039,361.262970 
	C121.507042,358.258667 120.884239,355.008545 121.029739,351.877045 
	C121.234657,347.466888 121.958519,343.059601 121.873238,338.662476 
	C121.760345,332.841370 121.080101,327.031281 120.652603,321.335297 
	C121.928154,321.119751 122.244545,321.020050 122.561096,321.019562 
	C130.718979,321.006714 138.876862,321.001648 147.034760,321.000610 
	C162.202942,320.998627 162.096024,321.000122 162.077530,305.826233 
	C162.073074,302.175995 161.080673,300.800659 157.281036,300.925293 
	C149.630768,301.176270 141.966461,301.000000 134.307953,301.000000 
	C130.229324,301.000000 126.150703,301.000000 122.349236,301.000000 
	C122.349236,293.886566 122.349236,287.479980 122.349236,280.513519 
	C133.611298,281.019867 144.505920,281.451233 155.393219,282.022217 
	C161.451859,282.339966 162.886246,281.127960 162.987732,274.882538 
	C163.046967,271.236206 162.984436,267.587891 162.672409,263.139893 
M482.035339,319.844421 
	C482.356873,318.094299 482.993988,316.335266 482.944702,314.595642 
	C482.744202,307.516388 482.140808,300.445709 482.043518,293.366943 
	C481.883179,281.701691 482.000305,281.688904 493.652130,282.017853 
	C494.779938,282.049683 495.925110,282.233734 497.020569,282.511536 
	C501.928833,283.756226 505.669373,280.219147 504.842499,275.318817 
	C504.390503,272.640198 504.103546,269.826416 504.413086,267.151245 
	C504.898224,262.958771 503.716705,261.031830 499.677032,261.014801 
	C489.212677,260.970734 478.747986,261.000000 468.283447,261.000000 
	C459.629181,261.000031 450.972900,261.105988 442.321655,260.944977 
	C439.109772,260.885223 437.786346,261.898926 437.948578,265.223114 
	C438.159302,269.539978 438.099091,273.877960 437.964539,278.200928 
	C437.878174,280.975739 438.926849,282.116638 441.745728,282.035980 
	C446.401917,281.902710 451.083954,282.262909 455.719055,281.923187 
	C460.025818,281.607544 461.216431,283.655579 460.999908,287.385101 
	C460.666718,293.124664 460.110901,298.862640 460.070648,304.604248 
	C460.038635,309.168091 460.948578,313.739807 460.897278,318.301941 
	C460.737366,332.523407 460.271515,346.741241 460.047607,360.962433 
	C460.009003,363.412628 460.922852,365.247650 464.124878,365.061981 
	C468.437531,364.811890 472.776733,364.936707 477.102325,365.019165 
	C480.795074,365.089539 482.145172,363.574951 482.081909,359.739136 
	C481.867889,346.761261 482.001648,333.777649 482.035339,319.844421 
M238.035629,328.841644 
	C238.357086,327.089600 238.930038,325.341248 238.955978,323.584839 
	C239.061676,316.424133 238.999954,309.260956 238.999878,302.098694 
	C238.999756,289.936554 239.007568,277.774414 238.993805,265.612274 
	C238.990433,262.616943 238.068298,260.714935 234.441833,260.937714 
	C230.126373,261.202759 225.781860,260.966309 221.450638,261.013367 
	C218.726898,261.042908 216.962616,261.758667 216.929108,265.215668 
	C216.744095,284.295898 216.209625,303.372955 216.063202,322.453156 
	C216.007568,329.699982 216.880814,336.950928 216.928268,344.202606 
	C216.962631,349.450500 216.317566,354.701782 216.005569,359.953339 
	C215.794724,363.502472 217.507187,365.040710 221.053284,365.024780 
	C234.714600,364.963501 248.377823,365.088318 262.035583,364.860046 
	C263.367432,364.837769 265.719177,362.938354 265.802124,361.781586 
	C266.200165,356.227173 265.980957,350.628540 265.980957,344.678101 
	C256.205994,344.678101 247.129684,344.678101 238.002502,344.678101 
	C238.002502,339.451538 238.002502,334.621857 238.035629,328.841644 
M178.000000,285.500061 
	C178.000000,310.303314 178.075333,335.107056 177.921570,359.909363 
	C177.897552,363.782959 178.874466,365.325500 182.955719,365.102051 
	C186.168274,364.926117 189.434814,365.630310 192.670258,366.005127 
	C196.911896,366.496429 199.900909,364.464996 199.930664,360.981567 
	C199.966080,356.837433 199.995422,352.693054 199.996292,348.548798 
	C200.002045,320.915649 199.990616,293.282501 200.011047,265.649353 
	C200.013565,262.255524 198.288391,260.929321 195.055542,260.983917 
	C191.061523,261.051392 187.063965,261.068756 183.070801,260.979462 
	C179.544540,260.900604 177.925110,262.454803 177.975800,266.022919 
	C178.063293,272.180908 178.000031,278.340973 178.000000,285.500061 
z"/>
<path fill="#FFFFFF" opacity="1.000000" stroke="none" 
	d="
M850.000000,210.531464 
	C754.531006,211.000000 659.061951,211.000000 563.296509,211.000000 
	C563.296509,204.069839 563.296509,197.329956 563.296509,190.226608 
	C564.618591,190.155136 566.053284,190.009842 567.487976,190.009674 
	C659.810425,189.998947 752.132812,189.996521 844.455261,190.028870 
	C846.048218,190.029434 847.640991,190.462570 849.616943,190.346924 
	C850.000000,196.687637 850.000000,203.375290 850.000000,210.531464 
z"/>
<path fill="#FFFFFF" opacity="1.000000" stroke="none" 
	d="
M1.000000,193.468414 
	C95.424278,193.000000 189.848557,193.000000 284.636414,193.000000 
	C284.636414,199.451065 284.636414,205.859924 284.636414,213.000000 
	C190.604279,213.000000 96.270798,213.000000 1.468657,213.000000 
	C1.000000,206.645599 1.000000,200.291214 1.000000,193.468414 
z"/>
<path fill="#FFFFFF" opacity="1.000000" stroke="none" 
	d="
M519.279907,97.776909 
	C525.110901,105.019974 529.543213,112.436470 531.206177,121.511948 
	C533.527710,134.181305 530.888550,145.756302 524.071899,156.231918 
	C517.779602,165.901566 508.782318,172.485550 497.338989,175.154144 
	C493.576477,176.031555 489.696686,176.909698 485.867828,176.921494 
	C444.895020,177.047699 403.921600,176.973572 362.948425,177.012558 
	C345.744873,177.028931 332.492310,169.421600 323.227692,155.403809 
	C312.496124,139.166351 313.161987,116.069931 326.876282,100.422882 
	C332.141754,94.415337 338.417572,90.361565 345.384644,86.923431 
	C346.527283,86.359535 347.760498,84.797455 347.905243,83.573006 
	C349.646332,68.843513 362.335022,55.136726 378.371826,55.101254 
	C383.149200,55.090683 388.007233,55.963982 392.678101,57.067810 
	C395.375244,57.705193 396.960968,57.021832 398.402161,55.089958 
	C408.647217,41.356701 422.071259,33.743916 439.324860,31.865591 
	C467.879852,28.756926 492.524841,48.124210 498.959351,73.542511 
	C499.551575,75.881836 499.732910,78.335281 499.984772,80.748283 
	C500.362579,84.367554 501.817139,86.506973 505.518951,88.227982 
	C510.402802,90.498535 514.550598,94.352303 519.279907,97.776909 
M509.050812,111.578133 
	C504.206482,106.440826 499.186951,101.955688 491.652374,100.711586 
	C485.980499,99.775047 483.754913,96.177994 484.060577,89.971977 
	C484.741425,76.148743 479.626221,65.145805 468.978088,56.433304 
	C459.198975,48.431820 447.942291,46.202911 435.986633,48.635178 
	C422.662750,51.345783 413.251892,59.405491 407.498352,71.896515 
	C403.437347,80.712952 398.350494,81.479614 391.378601,74.885559 
	C384.207703,68.103279 370.451874,70.273514 366.474670,79.278481 
	C364.772186,83.133125 364.286316,87.723022 364.135956,92.010002 
	C363.983459,96.356140 361.856964,98.585548 358.260254,99.984779 
	C355.444122,101.080353 352.481598,101.820450 349.716522,103.023041 
	C333.843872,109.926476 327.926117,128.073181 335.190613,143.163025 
	C341.144745,155.531067 352.130920,160.941559 365.644043,160.970230 
	C405.110077,161.053986 444.576538,161.037903 484.042480,160.931931 
	C487.395630,160.922928 490.853882,160.319412 494.080261,159.370041 
	C512.952209,153.817093 523.095276,130.571259 509.050812,111.578133 
z"/>
<path fill="#FFFFFF" opacity="1.000000" stroke="none" 
	d="
M652.992065,331.886719 
	C654.685913,335.185181 656.302490,338.121338 658.013062,341.001617 
	C660.026611,344.391907 662.893555,346.566772 666.930359,347.003265 
	C673.740112,347.739655 677.030762,353.474945 674.469299,360.059235 
	C673.190430,363.346619 671.193970,364.800659 667.313232,365.140015 
	C646.448059,366.964813 642.865051,357.919525 635.040894,341.783997 
	C632.388062,336.313080 630.131348,330.651062 627.538452,325.149506 
	C627.055908,324.125793 625.832153,323.451447 623.995850,321.711121 
	C623.995850,334.952148 623.912476,346.726837 624.039551,358.499298 
	C624.086121,362.812744 622.245972,364.981903 617.778809,364.997101 
	C613.783081,365.010712 609.783752,364.897797 605.792664,365.034729 
	C603.009949,365.130219 601.958862,364.054626 601.963989,361.246246 
	C602.021179,329.779572 601.982605,298.312714 602.023315,266.846008 
	C602.028137,263.123962 603.327881,260.851410 607.847778,260.892914 
	C615.087891,260.959442 622.334473,260.068817 629.578003,260.074036 
	C636.988403,260.079376 644.676147,259.551697 651.738403,261.297119 
	C660.641907,263.497589 667.849976,268.598328 670.183655,278.867218 
	C671.802795,285.992035 672.372314,292.775787 671.148560,300.029388 
	C668.995605,312.789886 659.499390,317.802917 649.058594,322.756775 
	C650.277588,325.490997 651.616943,328.495361 652.992065,331.886719 
M623.004822,302.424530 
	C624.308655,302.949677 625.624817,303.950256 626.914185,303.916718 
	C632.164673,303.780304 637.423523,303.484802 642.646667,302.937042 
	C646.334961,302.550201 649.805481,298.192352 649.997742,294.298401 
	C650.149048,291.233795 643.372925,281.484955 640.406311,281.074707 
	C636.046204,280.471771 631.618896,280.099579 627.225952,280.148285 
	C625.953674,280.162384 623.691101,281.873566 623.606201,282.943481 
	C623.117737,289.103333 623.146729,295.304230 623.004822,302.424530 
z"/>
<path fill="#FFFFFF" opacity="1.000000" stroke="none" 
	d="
M540.356445,366.000000 
	C524.881470,362.477753 519.834534,357.069275 516.134277,342.173492 
	C514.656372,336.224152 514.324524,329.918457 514.083130,323.751038 
	C513.751038,315.269318 513.476440,306.723816 514.138611,298.281036 
	C514.888184,288.724457 515.571167,279.073761 521.583496,270.682709 
	C525.980469,264.546143 532.116760,261.059723 538.836487,260.304382 
	C547.089844,259.376648 555.678772,260.035889 563.964600,261.166870 
	C573.309509,262.442413 584.215637,274.238861 584.891296,283.544281 
	C585.965027,298.332123 586.989807,313.181061 586.767090,327.985046 
	C586.620850,337.706421 585.384399,347.517944 578.222900,355.674561 
	C572.718872,361.943451 566.262817,365.315094 558.302612,365.914612 
	C552.504517,366.351288 546.647095,366.000000 540.356445,366.000000 
M564.000000,328.234039 
	C564.000000,318.752472 564.141602,309.267639 563.923645,299.791107 
	C563.846863,296.451874 563.055542,293.094788 562.299072,289.813019 
	C560.928528,283.867035 558.599548,281.415588 551.898987,281.047058 
	C543.040039,280.559814 540.065735,282.247803 537.606140,288.963013 
	C536.733948,291.344177 536.047729,293.971222 536.079651,296.475769 
	C536.239380,309.013336 536.518066,321.553925 537.061707,334.080139 
	C537.327332,340.199829 541.761047,345.351257 547.257812,345.886780 
	C552.124512,346.360931 559.408569,345.001343 561.761047,338.486572 
	C562.839355,335.500397 563.273682,332.281647 564.000000,328.234039 
z"/>
<path fill="#FFFFFF" opacity="1.000000" stroke="none" 
	d="
M394.917419,260.000000 
	C414.499664,258.535370 427.285095,275.243591 427.101440,291.178589 
	C427.049225,295.707245 424.834686,296.884857 421.120605,296.982727 
	C417.957611,297.066040 414.763947,296.739532 411.631683,297.060608 
	C406.841553,297.551636 404.845825,295.214111 403.955841,290.876404 
	C402.619415,284.362640 398.775452,281.152435 392.656464,281.000031 
	C383.366699,280.768646 381.127167,282.334564 378.602173,289.749115 
	C377.156281,293.994934 379.991089,296.261688 382.538727,297.664368 
	C387.822784,300.573639 393.573914,302.646820 399.172516,304.968567 
	C403.159851,306.622162 407.249390,308.030701 411.226654,309.706818 
	C419.226837,313.078278 424.270660,319.258423 425.713837,327.613556 
	C427.732574,339.300751 424.152740,355.453247 412.383392,361.901520 
	C408.565216,363.993408 403.987030,365.722809 399.733124,365.776764 
	C391.448639,365.881836 383.060425,367.309387 374.817017,364.112061 
	C363.743958,359.817169 358.473694,351.350830 356.006470,340.447266 
	C355.722107,339.190643 355.585449,337.899109 355.273621,336.650421 
	C353.731720,330.476196 355.195129,328.325775 361.443359,328.029358 
	C364.925415,327.864197 368.441742,328.234772 371.906647,327.940521 
	C376.247833,327.571838 377.573456,329.707031 378.058990,333.603180 
	C379.388641,344.272675 389.909668,349.675751 398.757263,343.806580 
	C401.376434,342.069122 402.987976,337.945160 403.813477,334.606323 
	C404.705688,330.997711 401.807007,328.620361 398.630829,327.261963 
	C389.658264,323.424652 380.353699,320.242371 371.743317,315.727600 
	C367.054077,313.268860 362.057617,309.371552 359.730286,304.827057 
	C353.685669,293.024261 355.319519,281.107605 363.203491,270.373840 
	C368.523315,263.131073 375.903076,259.739288 384.935699,259.986176 
	C388.098511,260.072662 391.265686,260.000000 394.917419,260.000000 
z"/>
<path fill="#FFFFFF" opacity="1.000000" stroke="none" 
	d="
M304.137207,321.000000 
	C301.043091,320.607025 299.808533,321.289062 299.923523,324.361908 
	C300.172241,331.009460 300.000092,337.672791 300.000092,344.864624 
	C311.523041,344.864624 322.947052,345.173981 334.340515,344.718903 
	C339.191376,344.525116 341.689697,345.612061 341.981567,350.440979 
	C342.091949,352.267365 342.001160,354.106018 341.999786,355.939056 
	C341.992676,365.258911 340.125763,366.524963 331.010651,365.155640 
	C326.120575,364.421021 321.031830,365.003082 316.032715,365.001251 
	C305.201050,364.997284 294.368408,364.915833 283.538239,365.043213 
	C279.461151,365.091156 277.832031,363.832336 277.893860,359.368164 
	C278.147797,341.041168 277.876221,322.707520 278.041809,304.378510 
	C278.160034,291.292725 278.772705,278.211670 278.928162,265.125702 
	C278.968781,261.706299 280.314880,260.925598 283.424652,260.949066 
	C298.421478,261.062286 313.419830,261.036072 328.417114,260.958160 
	C330.484131,260.947449 332.562500,260.444763 334.610657,260.042755 
	C338.999207,259.181427 342.141449,262.722290 341.335846,267.237823 
	C340.845337,269.986969 341.041595,272.866272 341.009674,275.688019 
	C340.947357,281.196716 339.260223,282.414825 333.705719,282.056030 
	C323.007751,281.364929 312.287354,281.021637 301.276001,280.520447 
	C301.276001,287.641144 301.276001,294.046204 301.276001,301.000000 
	C312.339722,301.000000 323.440277,300.999420 334.540833,301.000214 
	C341.065216,301.000671 342.320618,302.571716 340.957275,309.084381 
	C340.693237,310.345673 340.104797,311.572571 340.035461,312.835632 
	C339.587250,320.998169 339.620850,321.000000 331.618500,321.000000 
	C322.619904,321.000000 313.621277,321.000000 304.137207,321.000000 
z"/>
<path fill="#FFFFFF" opacity="1.000000" stroke="none" 
	d="
M750.000000,267.215668 
	C750.000000,270.015900 750.008789,272.347137 749.998352,274.678284 
	C749.968567,281.304626 748.184998,282.545532 741.620544,282.072632 
	C730.942261,281.303375 720.228699,281.023834 709.252686,280.524994 
	C709.252686,287.684113 709.252686,294.085785 709.252686,301.000000 
	C720.706116,301.000000 732.141602,301.211517 743.562439,300.895477 
	C748.106750,300.769745 749.494324,302.323517 749.057922,306.613922 
	C748.756165,309.580444 748.721619,312.634766 749.064209,315.592285 
	C749.597595,320.196869 747.584900,321.185150 743.355530,321.088104 
	C732.071594,320.829193 720.777832,321.000000 709.245239,321.000000 
	C709.245239,329.033630 709.245239,336.767151 709.245239,344.040039 
	C720.796631,344.040039 732.291687,344.173767 743.780090,343.955780 
	C747.084900,343.893097 749.912964,345.631989 749.984375,348.969940 
	C750.055542,352.298676 750.017212,355.630280 749.996216,358.960388 
	C749.957214,365.156219 748.520081,366.378571 742.341553,366.023438 
	C734.772522,365.588348 727.195923,365.176208 719.617493,365.040009 
	C710.295776,364.872467 700.966736,364.890320 691.644958,365.058350 
	C688.298462,365.118683 686.917969,364.247162 686.931702,360.599030 
	C687.050476,329.128418 687.023987,297.657166 686.969177,266.186218 
	C686.962463,262.333862 688.691162,260.941559 692.409058,260.963470 
	C707.394714,261.051727 722.381409,261.036224 737.367188,260.957947 
	C739.433350,260.947174 741.511597,260.443787 743.558044,260.036987 
	C747.495056,259.254333 749.946594,261.771912 750.000000,267.215668 
z"/>
<path fill="#FFFFFF" opacity="1.000000" stroke="none" 
	d="
M162.824554,263.540192 
	C162.984436,267.587891 163.046967,271.236206 162.987732,274.882538 
	C162.886246,281.127960 161.451859,282.339966 155.393219,282.022217 
	C144.505920,281.451233 133.611298,281.019867 122.349236,280.513519 
	C122.349236,287.479980 122.349236,293.886566 122.349236,301.000000 
	C126.150703,301.000000 130.229324,301.000000 134.307953,301.000000 
	C141.966461,301.000000 149.630768,301.176270 157.281036,300.925293 
	C161.080673,300.800659 162.073074,302.175995 162.077530,305.826233 
	C162.096024,321.000122 162.202942,320.998627 147.034760,321.000610 
	C138.876862,321.001648 130.718979,321.006714 122.561096,321.019562 
	C122.244545,321.020050 121.928154,321.119751 120.652603,321.335297 
	C121.080101,327.031281 121.760345,332.841370 121.873238,338.662476 
	C121.958519,343.059601 121.234657,347.466888 121.029739,351.877045 
	C120.884239,355.008545 121.507042,358.258667 120.873039,361.262970 
	C120.131050,364.778992 117.744041,366.302216 113.682556,365.368408 
	C110.512489,364.639557 107.070778,364.953796 103.755165,365.032318 
	C99.823517,365.125397 99.150017,362.487000 99.143684,359.571106 
	C99.138474,357.175415 99.954865,354.779022 99.960114,352.381958 
	C100.022148,324.078918 99.996109,295.775635 100.003128,267.472443 
	C100.004623,261.473358 100.489998,261.005341 106.618538,261.002289 
	C120.936630,260.995178 135.254990,261.043945 149.572556,260.956970 
	C151.971802,260.942383 154.445007,259.846954 156.742111,260.192993 
	C158.819717,260.505951 160.703293,262.106873 162.824554,263.540192 
z"/>
<path fill="#FFFFFF" opacity="1.000000" stroke="none" 
	d="
M482.018921,320.320312 
	C482.001648,333.777649 481.867889,346.761261 482.081909,359.739136 
	C482.145172,363.574951 480.795074,365.089539 477.102325,365.019165 
	C472.776733,364.936707 468.437531,364.811890 464.124878,365.061981 
	C460.922852,365.247650 460.009003,363.412628 460.047607,360.962433 
	C460.271515,346.741241 460.737366,332.523407 460.897278,318.301941 
	C460.948578,313.739807 460.038635,309.168091 460.070648,304.604248 
	C460.110901,298.862640 460.666718,293.124664 460.999908,287.385101 
	C461.216431,283.655579 460.025818,281.607544 455.719055,281.923187 
	C451.083954,282.262909 446.401917,281.902710 441.745728,282.035980 
	C438.926849,282.116638 437.878174,280.975739 437.964539,278.200928 
	C438.099091,273.877960 438.159302,269.539978 437.948578,265.223114 
	C437.786346,261.898926 439.109772,260.885223 442.321655,260.944977 
	C450.972900,261.105988 459.629181,261.000031 468.283447,261.000000 
	C478.747986,261.000000 489.212677,260.970734 499.677032,261.014801 
	C503.716705,261.031830 504.898224,262.958771 504.413086,267.151245 
	C504.103546,269.826416 504.390503,272.640198 504.842499,275.318817 
	C505.669373,280.219147 501.928833,283.756226 497.020569,282.511536 
	C495.925110,282.233734 494.779938,282.049683 493.652130,282.017853 
	C482.000305,281.688904 481.883179,281.701691 482.043518,293.366943 
	C482.140808,300.445709 482.744202,307.516388 482.944702,314.595642 
	C482.993988,316.335266 482.356873,318.094299 482.018921,320.320312 
z"/>
<path fill="#FFFFFF" opacity="1.000000" stroke="none" 
	d="
M238.019073,329.316895 
	C238.002502,334.621857 238.002502,339.451538 238.002502,344.678101 
	C247.129684,344.678101 256.205994,344.678101 265.980957,344.678101 
	C265.980957,350.628540 266.200165,356.227173 265.802124,361.781586 
	C265.719177,362.938354 263.367432,364.837769 262.035583,364.860046 
	C248.377823,365.088318 234.714600,364.963501 221.053284,365.024780 
	C217.507187,365.040710 215.794724,363.502472 216.005569,359.953339 
	C216.317566,354.701782 216.962631,349.450500 216.928268,344.202606 
	C216.880814,336.950928 216.007568,329.699982 216.063202,322.453156 
	C216.209625,303.372955 216.744095,284.295898 216.929108,265.215668 
	C216.962616,261.758667 218.726898,261.042908 221.450638,261.013367 
	C225.781860,260.966309 230.126373,261.202759 234.441833,260.937714 
	C238.068298,260.714935 238.990433,262.616943 238.993805,265.612274 
	C239.007568,277.774414 238.999756,289.936554 238.999878,302.098694 
	C238.999954,309.260956 239.061676,316.424133 238.955978,323.584839 
	C238.930038,325.341248 238.357086,327.089600 238.019073,329.316895 
z"/>
<path fill="#FFFFFF" opacity="1.000000" stroke="none" 
	d="
M178.000000,285.000122 
	C178.000031,278.340973 178.063293,272.180908 177.975800,266.022919 
	C177.925110,262.454803 179.544540,260.900604 183.070801,260.979462 
	C187.063965,261.068756 191.061523,261.051392 195.055542,260.983917 
	C198.288391,260.929321 200.013565,262.255524 200.011047,265.649353 
	C199.990616,293.282501 200.002045,320.915649 199.996292,348.548798 
	C199.995422,352.693054 199.966080,356.837433 199.930664,360.981567 
	C199.900909,364.464996 196.911896,366.496429 192.670258,366.005127 
	C189.434814,365.630310 186.168274,364.926117 182.955719,365.102051 
	C178.874466,365.325500 177.897552,363.782959 177.921570,359.909363 
	C178.075333,335.107056 178.000000,310.303314 178.000000,285.000122 
z"/>
<path fill="#000000" opacity="1.000000" stroke="none" 
	d="
M509.326172,111.822876 
	C523.095276,130.571259 512.952209,153.817093 494.080261,159.370041 
	C490.853882,160.319412 487.395630,160.922928 484.042480,160.931931 
	C444.576538,161.037903 405.110077,161.053986 365.644043,160.970230 
	C352.130920,160.941559 341.144745,155.531067 335.190613,143.163025 
	C327.926117,128.073181 333.843872,109.926476 349.716522,103.023041 
	C352.481598,101.820450 355.444122,101.080353 358.260254,99.984779 
	C361.856964,98.585548 363.983459,96.356140 364.135956,92.010002 
	C364.286316,87.723022 364.772186,83.133125 366.474670,79.278481 
	C370.451874,70.273514 384.207703,68.103279 391.378601,74.885559 
	C398.350494,81.479614 403.437347,80.712952 407.498352,71.896515 
	C413.251892,59.405491 422.662750,51.345783 435.986633,48.635178 
	C447.942291,46.202911 459.198975,48.431820 468.978088,56.433304 
	C479.626221,65.145805 484.741425,76.148743 484.060577,89.971977 
	C483.754913,96.177994 485.980499,99.775047 491.652374,100.711586 
	C499.186951,101.955688 504.206482,106.440826 509.326172,111.822876 
z"/>
<path fill="#000000" opacity="1.000000" stroke="none" 
	d="
M623.002563,301.957886 
	C623.146729,295.304230 623.117737,289.103333 623.606201,282.943481 
	C623.691101,281.873566 625.953674,280.162384 627.225952,280.148285 
	C631.618896,280.099579 636.046204,280.471771 640.406311,281.074707 
	C643.372925,281.484955 650.149048,291.233795 649.997742,294.298401 
	C649.805481,298.192352 646.334961,302.550201 642.646667,302.937042 
	C637.423523,303.484802 632.164673,303.780304 626.914185,303.916718 
	C625.624817,303.950256 624.308655,302.949677 623.002563,301.957886 
z"/>
<path fill="#000000" opacity="1.000000" stroke="none" 
	d="
M564.000000,328.701172 
	C563.273682,332.281647 562.839355,335.500397 561.761047,338.486572 
	C559.408569,345.001343 552.124512,346.360931 547.257812,345.886780 
	C541.761047,345.351257 537.327332,340.199829 537.061707,334.080139 
	C536.518066,321.553925 536.239380,309.013336 536.079651,296.475769 
	C536.047729,293.971222 536.733948,291.344177 537.606140,288.963013 
	C540.065735,282.247803 543.040039,280.559814 551.898987,281.047058 
	C558.599548,281.415588 560.928528,283.867035 562.299072,289.813019 
	C563.055542,293.094788 563.846863,296.451874 563.923645,299.791107 
	C564.141602,309.267639 564.000000,318.752472 564.000000,328.701172 
z"/>
</svg>