<svg version="1.1" id="Layer_1" xmlns="http://www.w3.org/2000/svg" xmlns:xlink="http://www.w3.org/1999/xlink" x="0px" y="0px"
	 width="100%" viewBox="0 0 849 413" enable-background="new 0 0 849 413" xml:space="preserve">
<path fill="#000000" opacity="1.000000" stroke="none" 
	d="
M850.000000,211.000000 
	C850.000000,278.643433 850.000000,346.286835 850.000000,413.965149 
	C567.120422,413.965149 284.240875,413.965149 1.000000,413.965149 
	C1.000000,347.310455 1.000000,280.620239 1.468657,213.465012 
	C96.270798,213.000000 190.604279,213.000000 284.636414,213.000000 
	C284.636414,205.859924 284.636414,199.451065 284.636414,193.000000 
	C189.848557,193.000000 95.424278,193.000000 1.000000,193.000000 
	C1.000000,129.022400 1.000000,65.044807 1.000000,1.033606 
	C283.878510,1.033606 566.757019,1.033606 850.000000,1.033606 
	C850.000000,63.689522 850.000000,126.379745 849.616943,189.881912 
	C847.640991,190.462570 846.048218,190.029434 844.455261,190.028870 
	C752.132812,189.996521 659.810425,189.998947 567.487976,190.009674 
	C566.053284,190.009842 564.618591,190.155136 563.296509,190.226608 
	C563.296509,197.329956 563.296509,204.069839 563.296509,211.000000 
	C659.061951,211.000000 754.531006,211.000000 850.000000,211.000000 
M420.500000,177.000000 
	C441.994019,177.000000 463.488281,177.050949 484.981842,176.951691 
	C488.723724,176.934418 492.605865,176.811081 496.180023,175.840759 
	C521.470032,168.974915 536.048218,145.352844 530.966858,120.412117 
	C528.008240,105.890739 519.504456,95.155357 506.524170,88.465256 
	C502.806915,86.549385 500.360138,84.987228 499.979980,80.812744 
	C499.759949,78.397057 499.547424,75.946266 498.962189,73.603539 
	C492.578705,48.049931 467.676666,28.739294 439.354492,31.859440 
	C422.099945,33.760311 408.659332,41.338268 398.408813,55.080788 
	C396.974823,57.003315 395.396851,57.716442 392.686218,57.070736 
	C388.016235,55.958294 383.154358,55.092457 378.374786,55.101025 
	C362.362885,55.129730 349.652740,68.826157 347.882996,83.584953 
	C347.733582,84.831177 346.111420,86.132317 344.878265,86.976761 
	C339.699860,90.522797 333.543915,93.080208 329.326111,97.505669 
	C317.908936,109.485008 313.433746,123.960564 317.007172,140.489166 
	C321.487579,161.213043 340.835602,177.271759 362.516144,177.042007 
	C381.508789,176.840759 400.505219,177.000000 420.500000,177.000000 
M217.000000,356.330627 
	C217.006470,362.999054 217.006470,362.999054 223.368652,363.000000 
	C229.998001,363.000977 229.999084,363.000977 229.999756,356.593262 
	C230.000732,347.160339 230.000000,337.727417 230.000000,327.924561 
	C241.232697,327.924561 251.979736,327.924561 263.000275,327.924561 
	C263.000275,325.918884 262.586914,324.151031 263.073120,322.680542 
	C264.996124,316.864380 261.740234,316.828491 257.452454,316.932739 
	C248.369919,317.153503 239.278259,317.000000 230.290558,317.000000 
	C230.290558,308.005798 230.290558,299.605164 230.290558,290.827576 
	C243.313721,290.827576 256.050140,290.827576 268.720642,290.827576 
	C268.720642,287.031952 268.720642,283.627258 268.720642,280.265137 
	C251.380020,280.265137 234.320099,280.265137 217.000000,280.265137 
	C217.000000,305.475861 217.000000,330.422363 217.000000,356.330627 
M538.979492,318.874756 
	C536.055603,315.589935 533.655701,311.519440 530.115601,309.158691 
	C516.099854,299.812134 488.966064,306.133057 486.676575,327.881531 
	C484.971771,344.075958 490.981079,361.506775 508.308441,363.648560 
	C517.210022,364.748871 525.685791,363.621338 533.060669,357.542358 
	C542.952026,349.389099 544.315857,330.919830 538.979492,318.874756 
M634.263977,360.974609 
	C636.520569,359.784088 638.777222,358.593597 641.696655,357.053406 
	C639.929077,354.116272 638.264343,351.350098 636.638916,348.649292 
	C629.517151,352.301239 623.341187,355.364319 615.677429,353.315033 
	C607.175781,351.041748 605.094788,344.772522 604.172607,337.187103 
	C605.322632,337.124420 606.463806,337.009796 607.605164,337.008240 
	C617.921082,336.994202 628.238342,337.083466 638.551270,336.906677 
	C640.036072,336.881256 642.693054,335.731567 642.784119,334.884613 
	C643.522705,328.016907 643.441589,320.791046 639.379089,315.100189 
	C628.999023,300.559387 607.594666,302.124451 598.046387,315.800903 
	C591.833069,324.700623 591.386780,334.842529 593.625916,344.879181 
	C594.650940,349.473694 597.113159,354.748383 600.636353,357.593689 
	C610.491272,365.552399 621.874207,365.932556 634.263977,360.974609 
M349.729828,337.000000 
	C359.395355,336.999969 369.062775,337.093170 378.724365,336.898468 
	C380.156555,336.869629 382.815460,335.417786 382.780457,334.732910 
	C382.500122,329.246094 382.631683,323.465118 380.870178,318.387115 
	C377.740112,309.364014 369.967926,305.488403 360.918335,305.124725 
	C351.347748,304.740112 343.422089,308.148102 337.669891,316.605072 
	C331.909515,325.074127 332.452515,334.306152 333.165222,343.516083 
	C333.613556,349.309784 336.659729,354.196442 341.378815,358.124512 
	C352.302643,367.217133 370.287415,365.039337 381.275909,356.735687 
	C379.996735,354.142029 378.686584,351.485626 377.151245,348.372559 
	C370.371552,352.157959 363.712860,355.520569 356.114258,353.565125 
	C347.844208,351.436920 344.404785,345.472290 344.693359,337.000000 
	C345.818787,337.000000 347.306244,337.000000 349.729828,337.000000 
M435.983582,343.056061 
	C433.914429,336.907745 430.103790,332.666168 423.602234,330.891968 
	C418.057312,329.378815 412.509064,327.710510 407.232422,325.473572 
	C405.416779,324.703888 403.577057,322.108826 403.348022,320.159637 
	C403.202301,318.919800 405.756500,316.750854 407.523956,316.010529 
	C413.267944,313.604492 419.249603,314.596344 424.404968,317.354889 
	C428.499603,319.545898 430.597534,319.041626 432.399353,315.117065 
	C432.930023,313.961273 433.550903,312.846924 434.347382,311.289276 
	C424.168518,305.992279 414.105377,302.838989 402.753815,306.935211 
	C393.541168,310.259613 389.648438,316.528534 392.049500,325.887970 
	C393.513580,331.595062 398.313019,334.108124 403.319366,335.937927 
	C408.564453,337.855042 414.000031,339.244781 419.283081,341.065948 
	C423.043701,342.362305 424.786102,345.357239 423.870850,349.137299 
	C423.007751,352.702118 420.190338,353.860840 416.469574,354.095947 
	C408.080750,354.626007 400.463837,352.764069 393.779938,347.644348 
	C391.930054,350.901978 390.376404,353.637970 388.761230,356.482300 
	C397.614014,362.498352 407.096222,364.944183 417.227997,363.914062 
	C430.446503,362.570038 436.003296,356.345337 435.983582,343.056061 
M449.321655,316.004242 
	C449.881104,317.279327 450.906403,318.547485 450.925476,319.830566 
	C451.064056,329.160278 450.756561,338.502869 451.133301,347.819366 
	C451.263519,351.040100 452.340790,354.559753 454.015594,357.317230 
	C458.945679,365.434540 471.948730,366.331757 482.262085,359.707794 
	C481.176025,357.149719 480.069214,354.542786 478.877289,351.735443 
	C476.777954,352.544739 475.209473,353.290375 473.562134,353.758270 
	C468.455261,355.208649 463.422516,353.034515 463.110657,348.711487 
	C462.331329,337.909546 462.049347,327.071716 461.550812,315.866089 
	C468.337128,315.866089 474.108765,315.866089 479.695221,315.866089 
	C480.202026,312.799774 480.644897,310.120239 481.184875,306.853271 
	C474.539093,306.853271 468.304169,306.853271 461.729034,306.853271 
	C461.729034,301.897217 461.729034,297.478088 461.729034,292.687988 
	C457.964996,293.251648 454.625732,293.751709 450.918579,294.306885 
	C450.918579,298.518341 450.918579,302.615417 450.918579,307.078918 
	C447.123657,307.078918 443.702972,307.078918 440.235474,307.078918 
	C440.235474,310.216400 440.235474,312.955109 440.235474,316.000275 
	C443.095428,316.000275 445.730438,316.000275 449.321655,316.004242 
M320.000000,359.343811 
	C320.000000,330.922333 320.000000,302.500885 320.000000,273.919220 
	C316.095642,274.452209 312.739319,274.910370 309.349182,275.373169 
	C309.349182,304.558136 309.349182,333.742401 309.349182,362.998413 
	C312.360199,362.998413 315.050964,363.218048 317.667999,362.875031 
	C318.542236,362.760437 319.227936,361.207336 320.000000,359.343811 
M554.000000,311.716797 
	C554.000000,328.457886 554.000000,345.198944 554.000000,361.640045 
	C558.454285,361.640045 562.194763,361.640045 566.000000,361.640045 
	C566.000000,350.455048 565.997742,339.629852 566.000916,328.804657 
	C566.002380,323.625580 568.666748,319.272858 573.766052,318.140900 
	C578.201721,317.156250 582.917297,317.432220 587.774170,317.134888 
	C588.293152,314.178009 588.918152,310.617340 589.569153,306.908234 
	C580.796387,302.164062 573.568542,307.064178 566.163452,310.824188 
	C566.009460,308.646515 565.884094,306.872833 565.777588,305.366211 
	C563.228516,305.596832 560.976440,306.104828 558.778015,305.931610 
	C555.034546,305.636658 553.464050,307.053406 554.000000,311.716797 
M289.113281,305.969910 
	C278.846710,306.226013 280.069855,304.320862 280.002747,315.411499 
	C279.984619,318.407410 280.000000,321.403534 280.000000,324.399567 
	C280.000000,336.829224 280.000000,349.258881 280.000000,361.767273 
	C284.208618,361.767273 287.943848,361.767273 292.000000,361.767273 
	C292.000000,354.750031 292.000031,347.960480 292.000000,341.170959 
	C291.999969,330.185516 292.044983,319.199524 291.919220,308.215515 
	C291.908539,307.280212 293.479462,304.226074 289.113281,305.969910 
M283.090332,295.986115 
	C284.081451,295.990753 285.072662,296.007416 286.063629,295.997955 
	C291.097229,295.949921 294.388855,292.301788 293.999207,287.210754 
	C293.656921,282.738647 289.608887,279.365173 285.361145,280.012085 
	C280.052490,280.820526 276.624298,285.189636 278.142334,289.946136 
	C278.835876,292.119324 280.863770,293.866638 283.090332,295.986115 
z"/>
<path fill="#FFFFFF" opacity="1.000000" stroke="none" 
	d="
M850.000000,210.531464 
	C754.531006,211.000000 659.061951,211.000000 563.296509,211.000000 
	C563.296509,204.069839 563.296509,197.329956 563.296509,190.226608 
	C564.618591,190.155136 566.053284,190.009842 567.487976,190.009674 
	C659.810425,189.998947 752.132812,189.996521 844.455261,190.028870 
	C846.048218,190.029434 847.640991,190.462570 849.616943,190.346924 
	C850.000000,196.687637 850.000000,203.375290 850.000000,210.531464 
z"/>
<path fill="#FFFFFF" opacity="1.000000" stroke="none" 
	d="
M1.000000,193.468414 
	C95.424278,193.000000 189.848557,193.000000 284.636414,193.000000 
	C284.636414,199.451065 284.636414,205.859924 284.636414,213.000000 
	C190.604279,213.000000 96.270798,213.000000 1.468657,213.000000 
	C1.000000,206.645599 1.000000,200.291214 1.000000,193.468414 
z"/>
<path fill="#FFFFFF" opacity="1.000000" stroke="none" 
	d="
M420.000000,177.000000 
	C400.505219,177.000000 381.508789,176.840759 362.516144,177.042007 
	C340.835602,177.271759 321.487579,161.213043 317.007172,140.489166 
	C313.433746,123.960564 317.908936,109.485008 329.326111,97.505669 
	C333.543915,93.080208 339.699860,90.522797 344.878265,86.976761 
	C346.111420,86.132317 347.733582,84.831177 347.882996,83.584953 
	C349.652740,68.826157 362.362885,55.129730 378.374786,55.101025 
	C383.154358,55.092457 388.016235,55.958294 392.686218,57.070736 
	C395.396851,57.716442 396.974823,57.003315 398.408813,55.080788 
	C408.659332,41.338268 422.099945,33.760311 439.354492,31.859440 
	C467.676666,28.739294 492.578705,48.049931 498.962189,73.603539 
	C499.547424,75.946266 499.759949,78.397057 499.979980,80.812744 
	C500.360138,84.987228 502.806915,86.549385 506.524170,88.465256 
	C519.504456,95.155357 528.008240,105.890739 530.966858,120.412117 
	C536.048218,145.352844 521.470032,168.974915 496.180023,175.840759 
	C492.605865,176.811081 488.723724,176.934418 484.981842,176.951691 
	C463.488281,177.050949 441.994019,177.000000 420.000000,177.000000 
M417.015747,58.475861 
	C413.863190,62.959442 410.291595,67.210793 407.650085,71.977585 
	C402.946564,80.465576 398.350830,81.478722 391.376556,74.883308 
	C384.206696,68.102913 370.449799,70.276329 366.472870,79.281967 
	C364.770599,83.136772 364.287140,87.726982 364.135620,92.014351 
	C363.981964,96.360336 361.853943,98.588089 358.255737,99.985374 
	C355.438782,101.079292 352.476166,101.819618 349.711700,103.023476 
	C333.838867,109.935677 327.932373,128.074402 335.191040,143.169998 
	C341.145935,155.554199 352.148010,160.937271 365.651581,160.968231 
	C404.785736,161.057983 443.920227,161.000336 483.054565,160.999847 
	C500.482239,160.999634 511.357178,151.223846 515.208008,134.244873 
	C518.535095,119.575005 504.674072,103.254021 493.338715,100.932938 
	C487.611572,99.760208 483.702942,98.514137 484.064850,89.693794 
	C484.624146,76.062531 479.552765,65.275398 469.147217,56.574375 
	C454.342529,44.194889 431.399384,45.106373 417.015747,58.475861 
z"/>
<path fill="#FFFFFF" opacity="1.000000" stroke="none" 
	d="
M217.000000,355.849731 
	C217.000000,330.422363 217.000000,305.475861 217.000000,280.265137 
	C234.320099,280.265137 251.380020,280.265137 268.720642,280.265137 
	C268.720642,283.627258 268.720642,287.031952 268.720642,290.827576 
	C256.050140,290.827576 243.313721,290.827576 230.290558,290.827576 
	C230.290558,299.605164 230.290558,308.005798 230.290558,317.000000 
	C239.278259,317.000000 248.369919,317.153503 257.452454,316.932739 
	C261.740234,316.828491 264.996124,316.864380 263.073120,322.680542 
	C262.586914,324.151031 263.000275,325.918884 263.000275,327.924561 
	C251.979736,327.924561 241.232697,327.924561 230.000000,327.924561 
	C230.000000,337.727417 230.000732,347.160339 229.999756,356.593262 
	C229.999084,363.000977 229.998001,363.000977 223.368652,363.000000 
	C217.006470,362.999054 217.006470,362.999054 217.000000,355.849731 
z"/>
<path fill="#FFFFFF" opacity="1.000000" stroke="none" 
	d="
M538.991089,319.269592 
	C544.315857,330.919830 542.952026,349.389099 533.060669,357.542358 
	C525.685791,363.621338 517.210022,364.748871 508.308441,363.648560 
	C490.981079,361.506775 484.971771,344.075958 486.676575,327.881531 
	C488.966064,306.133057 516.099854,299.812134 530.115601,309.158691 
	C533.655701,311.519440 536.055603,315.589935 538.991089,319.269592 
M508.730072,315.803619 
	C503.215454,317.574890 500.022400,321.693665 499.178009,327.053833 
	C498.462036,331.598602 498.186462,336.546295 499.226471,340.959778 
	C500.999878,348.485504 504.466980,354.505890 515.068848,354.056824 
	C523.716919,353.690521 526.272461,351.290710 529.087708,339.558624 
	C532.861511,323.832397 525.101990,314.275055 508.730072,315.803619 
z"/>
<path fill="#FFFFFF" opacity="1.000000" stroke="none" 
	d="
M633.863098,361.019806 
	C621.874207,365.932556 610.491272,365.552399 600.636353,357.593689 
	C597.113159,354.748383 594.650940,349.473694 593.625916,344.879181 
	C591.386780,334.842529 591.833069,324.700623 598.046387,315.800903 
	C607.594666,302.124451 628.999023,300.559387 639.379089,315.100189 
	C643.441589,320.791046 643.522705,328.016907 642.784119,334.884613 
	C642.693054,335.731567 640.036072,336.881256 638.551270,336.906677 
	C628.238342,337.083466 617.921082,336.994202 607.605164,337.008240 
	C606.463806,337.009796 605.322632,337.124420 604.172607,337.187103 
	C605.094788,344.772522 607.175781,351.041748 615.677429,353.315033 
	C623.341187,355.364319 629.517151,352.301239 636.638916,348.649292 
	C638.264343,351.350098 639.929077,354.116272 641.696655,357.053406 
	C638.777222,358.593597 636.520569,359.784088 633.863098,361.019806 
M611.027100,317.450104 
	C608.773193,320.659668 606.519226,323.869263 603.812683,327.723358 
	C613.828064,327.723358 622.374756,327.723358 630.887878,327.723358 
	C631.388489,322.750397 630.432373,318.232178 626.006470,316.152466 
	C621.385254,313.980988 616.273865,313.897980 611.027100,317.450104 
z"/>
<path fill="#FFFFFF" opacity="1.000000" stroke="none" 
	d="
M349.261780,337.000000 
	C347.306244,337.000000 345.818787,337.000000 344.693359,337.000000 
	C344.404785,345.472290 347.844208,351.436920 356.114258,353.565125 
	C363.712860,355.520569 370.371552,352.157959 377.151245,348.372559 
	C378.686584,351.485626 379.996735,354.142029 381.275909,356.735687 
	C370.287415,365.039337 352.302643,367.217133 341.378815,358.124512 
	C336.659729,354.196442 333.613556,349.309784 333.165222,343.516083 
	C332.452515,334.306152 331.909515,325.074127 337.669891,316.605072 
	C343.422089,308.148102 351.347748,304.740112 360.918335,305.124725 
	C369.967926,305.488403 377.740112,309.364014 380.870178,318.387115 
	C382.631683,323.465118 382.500122,329.246094 382.780457,334.732910 
	C382.815460,335.417786 380.156555,336.869629 378.724365,336.898468 
	C369.062775,337.093170 359.395355,336.999969 349.261780,337.000000 
M345.272278,327.760254 
	C353.823761,327.760254 362.375214,327.760254 370.918457,327.760254 
	C371.304718,322.346924 370.138519,317.983826 365.109924,315.666138 
	C360.514069,313.547943 353.250366,314.842194 349.880066,318.763580 
	C347.848877,321.126862 346.627380,324.186005 345.272278,327.760254 
z"/>
<path fill="#FFFFFF" opacity="1.000000" stroke="none" 
	d="
M435.991211,343.488983 
	C436.003296,356.345337 430.446503,362.570038 417.227997,363.914062 
	C407.096222,364.944183 397.614014,362.498352 388.761230,356.482300 
	C390.376404,353.637970 391.930054,350.901978 393.779938,347.644348 
	C400.463837,352.764069 408.080750,354.626007 416.469574,354.095947 
	C420.190338,353.860840 423.007751,352.702118 423.870850,349.137299 
	C424.786102,345.357239 423.043701,342.362305 419.283081,341.065948 
	C414.000031,339.244781 408.564453,337.855042 403.319366,335.937927 
	C398.313019,334.108124 393.513580,331.595062 392.049500,325.887970 
	C389.648438,316.528534 393.541168,310.259613 402.753815,306.935211 
	C414.105377,302.838989 424.168518,305.992279 434.347382,311.289276 
	C433.550903,312.846924 432.930023,313.961273 432.399353,315.117065 
	C430.597534,319.041626 428.499603,319.545898 424.404968,317.354889 
	C419.249603,314.596344 413.267944,313.604492 407.523956,316.010529 
	C405.756500,316.750854 403.202301,318.919800 403.348022,320.159637 
	C403.577057,322.108826 405.416779,324.703888 407.232422,325.473572 
	C412.509064,327.710510 418.057312,329.378815 423.602234,330.891968 
	C430.103790,332.666168 433.914429,336.907745 435.991211,343.488983 
z"/>
<path fill="#FFFFFF" opacity="1.000000" stroke="none" 
	d="
M448.843536,316.002258 
	C445.730438,316.000275 443.095428,316.000275 440.235474,316.000275 
	C440.235474,312.955109 440.235474,310.216400 440.235474,307.078918 
	C443.702972,307.078918 447.123657,307.078918 450.918579,307.078918 
	C450.918579,302.615417 450.918579,298.518341 450.918579,294.306885 
	C454.625732,293.751709 457.964996,293.251648 461.729034,292.687988 
	C461.729034,297.478088 461.729034,301.897217 461.729034,306.853271 
	C468.304169,306.853271 474.539093,306.853271 481.184875,306.853271 
	C480.644897,310.120239 480.202026,312.799774 479.695221,315.866089 
	C474.108765,315.866089 468.337128,315.866089 461.550812,315.866089 
	C462.049347,327.071716 462.331329,337.909546 463.110657,348.711487 
	C463.422516,353.034515 468.455261,355.208649 473.562134,353.758270 
	C475.209473,353.290375 476.777954,352.544739 478.877289,351.735443 
	C480.069214,354.542786 481.176025,357.149719 482.262085,359.707794 
	C471.948730,366.331757 458.945679,365.434540 454.015594,357.317230 
	C452.340790,354.559753 451.263519,351.040100 451.133301,347.819366 
	C450.756561,338.502869 451.064056,329.160278 450.925476,319.830566 
	C450.906403,318.547485 449.881104,317.279327 448.843536,316.002258 
z"/>
<path fill="#FFFFFF" opacity="1.000000" stroke="none" 
	d="
M319.999878,359.827789 
	C319.227936,361.207336 318.542236,362.760437 317.667999,362.875031 
	C315.050964,363.218048 312.360199,362.998413 309.349182,362.998413 
	C309.349182,333.742401 309.349182,304.558136 309.349182,275.373169 
	C312.739319,274.910370 316.095642,274.452209 320.000000,273.919220 
	C320.000000,302.500885 320.000000,330.922333 319.999878,359.827789 
z"/>
<path fill="#FFFFFF" opacity="1.000000" stroke="none" 
	d="
M554.000000,311.244019 
	C553.464050,307.053406 555.034546,305.636658 558.778015,305.931610 
	C560.976440,306.104828 563.228516,305.596832 565.777588,305.366211 
	C565.884094,306.872833 566.009460,308.646515 566.163452,310.824188 
	C573.568542,307.064178 580.796387,302.164062 589.569153,306.908234 
	C588.918152,310.617340 588.293152,314.178009 587.774170,317.134888 
	C582.917297,317.432220 578.201721,317.156250 573.766052,318.140900 
	C568.666748,319.272858 566.002380,323.625580 566.000916,328.804657 
	C565.997742,339.629852 566.000000,350.455048 566.000000,361.640045 
	C562.194763,361.640045 558.454285,361.640045 554.000000,361.640045 
	C554.000000,345.198944 554.000000,328.457886 554.000000,311.244019 
z"/>
<path fill="#FFFFFF" opacity="1.000000" stroke="none" 
	d="
M289.526489,305.777740 
	C293.479462,304.226074 291.908539,307.280212 291.919220,308.215515 
	C292.044983,319.199524 291.999969,330.185516 292.000000,341.170959 
	C292.000031,347.960480 292.000000,354.750031 292.000000,361.767273 
	C287.943848,361.767273 284.208618,361.767273 280.000000,361.767273 
	C280.000000,349.258881 280.000000,336.829224 280.000000,324.399567 
	C280.000000,321.403534 279.984619,318.407410 280.002747,315.411499 
	C280.069855,304.320862 278.846710,306.226013 289.526489,305.777740 
z"/>
<path fill="#FFFFFF" opacity="1.000000" stroke="none" 
	d="
M282.688416,295.896606 
	C280.863770,293.866638 278.835876,292.119324 278.142334,289.946136 
	C276.624298,285.189636 280.052490,280.820526 285.361145,280.012085 
	C289.608887,279.365173 293.656921,282.738647 293.999207,287.210754 
	C294.388855,292.301788 291.097229,295.949921 286.063629,295.997955 
	C285.072662,296.007416 284.081451,295.990753 282.688416,295.896606 
z"/>
<path fill="#000000" opacity="1.000000" stroke="none" 
	d="
M417.276001,58.226555 
	C431.399384,45.106373 454.342529,44.194889 469.147217,56.574375 
	C479.552765,65.275398 484.624146,76.062531 484.064850,89.693794 
	C483.702942,98.514137 487.611572,99.760208 493.338715,100.932938 
	C504.674072,103.254021 518.535095,119.575005 515.208008,134.244873 
	C511.357178,151.223846 500.482239,160.999634 483.054565,160.999847 
	C443.920227,161.000336 404.785736,161.057983 365.651581,160.968231 
	C352.148010,160.937271 341.145935,155.554199 335.191040,143.169998 
	C327.932373,128.074402 333.838867,109.935677 349.711700,103.023476 
	C352.476166,101.819618 355.438782,101.079292 358.255737,99.985374 
	C361.853943,98.588089 363.981964,96.360336 364.135620,92.014351 
	C364.287140,87.726982 364.770599,83.136772 366.472870,79.281967 
	C370.449799,70.276329 384.206696,68.102913 391.376556,74.883308 
	C398.350830,81.478722 402.946564,80.465576 407.650085,71.977585 
	C410.291595,67.210793 413.863190,62.959442 417.276001,58.226555 
z"/>
<path fill="#000000" opacity="1.000000" stroke="none" 
	d="
M509.014679,315.494446 
	C525.101990,314.275055 532.861511,323.832397 529.087708,339.558624 
	C526.272461,351.290710 523.716919,353.690521 515.068848,354.056824 
	C504.466980,354.505890 500.999878,348.485504 499.226471,340.959778 
	C498.186462,336.546295 498.462036,331.598602 499.178009,327.053833 
	C500.022400,321.693665 503.215454,317.574890 509.014679,315.494446 
z"/>
<path fill="#000000" opacity="1.000000" stroke="none" 
	d="
M611.327881,317.181641 
	C616.273865,313.897980 621.385254,313.980988 626.006470,316.152466 
	C630.432373,318.232178 631.388489,322.750397 630.887878,327.723358 
	C622.374756,327.723358 613.828064,327.723358 603.812683,327.723358 
	C606.519226,323.869263 608.773193,320.659668 611.327881,317.181641 
z"/>
<path fill="#000000" opacity="1.000000" stroke="none" 
	d="
M345.157166,327.346375 
	C346.627380,324.186005 347.848877,321.126862 349.880066,318.763580 
	C353.250366,314.842194 360.514069,313.547943 365.109924,315.666138 
	C370.138519,317.983826 371.304718,322.346924 370.918457,327.760254 
	C362.375214,327.760254 353.823761,327.760254 345.157166,327.346375 
z"/>
</svg>